<?xml version="1.0" standalone="no"?>
<!DOCTYPE svg PUBLIC "-//W3C//DTD SVG 20010904//EN"
 "http://www.w3.org/TR/2001/REC-SVG-20010904/DTD/svg10.dtd">
<svg version="1.0" xmlns="http://www.w3.org/2000/svg"
 width="500.000000pt" height="500.000000pt" viewBox="0 0 500.000000 500.000000"
 preserveAspectRatio="xMidYMid meet">
<metadata>
Created by potrace 1.14, written by Peter Selinger 2001-2017
</metadata>
<g transform="translate(0.000000,500.000000) scale(0.100000,-0.100000)"
fill="#000000" stroke="none">
<path d="M2260 4760 l0 -240 -120 0 -120 0 0 -120 0 -120 -120 0 -120 0 0
-240 0 -240 -120 0 -120 0 0 -240 0 -240 -120 0 -120 0 0 -240 0 -240 -120 0
-120 0 0 -240 0 -240 -120 0 -120 0 0 -240 0 -240 120 0 120 0 0 -480 0 -480
120 0 120 0 0 -120 0 -120 120 0 120 0 0 -120 0 -120 -120 0 -120 0 0 -120 0
-120 -120 0 -120 0 0 -100 0 -100 1440 0 1440 0 0 100 0 100 -120 0 -120 0 0
120 0 120 -120 0 -121 0 3 117 3 118 118 3 117 3 0 119 0 120 120 0 120 0 0
480 0 480 120 0 120 0 0 240 0 240 -120 0 -120 0 0 240 0 240 -120 0 -120 0 0
240 0 240 -120 0 -120 0 0 240 0 240 -120 0 -120 0 0 240 0 240 -120 0 -120 0
0 240 0 240 -120 0 -120 0 0 120 0 120 -240 0 -240 0 0 -240z"/>
</g>
</svg>
